<svg xmlns="http://www.w3.org/2000/svg" width="1442" height="372.6" data-name="Layer 2" viewBox="0 0 1442 372.6"><defs><style>.cls-1 {        fill: #ffc300;      }</style></defs><g transform="translate(.0026237 -.0023518)" data-name="Layer 1"><path d="m447.64 263.5v-221.55h-39v228.39c0 51.07 32.57 57.1 54.68 57.1 6.84 0 12.87-0.8 12.87-0.8v-34.58s-3.22 0.4-6.83 0.4c-12.06 0-21.71-4.42-21.71-28.95z"></path><rect x="509.16" y="41.95" width="39.41" height="39.81"></rect><rect x="509.56" y="122.37" width="39" height="203.46"></rect><path d="m649.08 247.02v-90.47h49.06v-31.36h-49.06v-58.71h-37.8v58.71h-27.75v31.36h26.54v94.9c0 67.95 51.87 76 78.01 76 8.04 0 13.67-0.8 13.67-0.8v-34.58s-3.62 0.8-9.25 0.8c-14.88 0-43.43-5.23-43.43-45.84z"></path><path d="m971.55 117.54c-32.97 0-61.12 21.71-72.37 46.24h-0.81c-6.84-30.56-26.94-46.24-61.12-46.24-31.76 0-60.31 22.92-69.96 46.64h-0.81s0.81-6.83 0.81-14.88v-26.94h-37.8v203.46h39v-92.88c0-9.25 0.4-18.5 2.41-26.54 7.64-28.95 28.55-53.48 58.3-53.48 31.36 0 35.38 24.53 35.38 51.07v121.84h39v-92.88c0-10.46 0.8-19.7 2.81-28.15 7.24-27.75 28.55-51.87 57.1-51.87 30.56 0 36.19 22.52 36.19 51.07v121.84h39v-130.29c0-51.87-21.31-78.01-67.15-78.01z"></path><path d="m1167.8 117.54c-60.72 0-109.77 44.63-109.77 106.15s49.06 106.96 109.77 106.96 109.77-45.03 109.77-106.96-49.06-106.15-109.77-106.15zm0 179.33c-38.2 0-69.96-30.56-69.96-73.18s31.76-72.38 69.96-72.38 69.96 30.16 69.96 72.38-31.36 73.18-69.96 73.18z"></path><path d="m1337.4 176.25c0-17.69 16.48-24.93 33.37-24.93 32.17 0 50.26 18.09 50.26 18.09l15.68-29.35s-20.91-22.52-65.54-22.52c-40.61 0-73.58 20.91-73.58 57.9 0 66.34 104.54 58.71 104.54 96.1 0 16.49-16.89 25.33-33.78 25.33-35.38 0-58.3-23.72-58.3-23.72l-18.9 27.75s27.34 29.75 77.2 29.75c44.63 0 73.58-25.33 73.58-59.11 0-66.75-104.54-58.71-104.54-95.3z"></path><path class="cls-1" d="m100.01 212.25c8.67 0 15.72-7.05 15.72-15.72s-7.05-15.72-15.72-15.72-15.72 7.05-15.72 15.72 7.05 15.72 15.72 15.72z"></path><path class="cls-1" d="m235.2 180.8c-8.67 0-15.72 7.05-15.72 15.72s7.05 15.72 15.72 15.72 15.72-7.05 15.72-15.72-7.05-15.72-15.72-15.72z"></path><path class="cls-1" d="m307.54 143.06c-2.54-0.46-5.27-0.92-8.15-1.38-6.63-21.74-18.55-41.45-35.1-57.75-0.45-0.66-0.96-1.26-1.52-1.79-1.69-1.64-42.11-40.66-101.01-76.99-6.18-3.81-13.98-3.53-19.87 0.73-5.32 3.84-8.06 10.19-7.29 16.59-11.89-7.5-22.81-14.35-31.26-19.63-6.49-4.06-14.67-3.74-20.82 0.81-6.16 4.55-8.86 12.27-6.87 19.67 1.68 6.28 3.49 12.55 5.41 18.72-5.92-3-12.98-2.8-18.85 0.71-6.97 4.18-10.59 12.06-9.24 20.06 2.12 12.51 4.04 24.27 5.62 34.35-10.49 13.4-18.37 28.69-23.32 44.96-1.9 0.31-3.75 0.63-5.49 0.95-18.72 3.41-31.7 20.91-29.55 39.83 1.46 12.88 4.24 32.48 9.12 52.68 3.24 13.4 13.61 23.76 26.61 26.92v14.83c0 55.12 56.04 95.14 133.31 95.27h0.19 0.19c77.27-0.14 133.31-40.16 133.31-95.28v-15.25c12.25-3.6 21.92-13.64 25.03-26.49 4.88-20.2 7.65-39.8 9.12-52.68 2.15-18.92-10.83-36.42-29.56-39.83zm-227.33-34.79c2.24-2.63 3.22-6.1 2.69-9.51-1.34-8.73-2.93-18.63-4.75-29.53 8.26 6.05 15.21 10.58 20.69 13.48 4.4 2.32 9.84 1.64 13.53-1.71s4.9-8.69 3.01-13.3c-4.67-11.4-9.06-23.98-13.07-37.45 13.27 8.33 29.68 18.66 45.87 28.97 4.27 2.71 9.8 2.43 13.77-0.71s5.51-8.47 3.83-13.24c-1.36-3.88-2.64-7.84-3.83-11.82 44.04 28.77 76.11 58.11 82.59 64.19 0.45 0.64 0.97 1.24 1.54 1.78 11.73 11.15 20.8 24.46 26.86 39.09-17.76-1.52-38.75-2.11-61.89-0.45-10.58 0.76-20.24 5.4-26.52 12.74-4.33 5.07-7.18 11.15-8.25 17.63-2.74-0.38-5.83-0.55-7.64-0.55s-4.9 0.17-7.64 0.55c-1.06-6.48-3.91-12.57-8.25-17.63-6.27-7.33-15.94-11.97-26.52-12.74-24.32-1.74-46.24-1-64.56 0.7 4.56-11.06 10.79-21.4 18.5-30.47zm-48.5 122.2c-4.65-19.15-7.29-37.85-8.69-50.17-0.79-6.97 3.99-13.42 10.88-14.67 14.17-2.58 36.82-5.66 64.24-5.66 9.33 0 18.75 0.36 28.01 1.06 3.69 0.28 7.02 2 9.37 4.85 2.33 2.82 3.39 6.38 2.97 10.02-0.55 4.73-1.21 9.68-1.92 14.28-0.63 2.2-1.03 4.5-1.11 6.43-2.93 16.26-6.42 27.6-8.83 34.26-1.57 4.34-5.38 7.61-9.94 8.52-32.65 6.5-58.53 4.18-74.48 1.09-5.15-1-9.27-4.92-10.5-10zm248.71 46.85c0 42.1-46.65 72.67-110.96 72.74-64.31-0.06-110.96-30.63-110.96-72.74v-11.55c20.1 1.63 41.41 0.35 62.68-3.9 12.37-2.47 22.72-11.35 27.01-23.19 2.73-7.53 6.66-20.31 9.91-38.46 0.89-4.98 4.74-8.83 9.37-9.37 0.78-0.1 1.6-0.1 2.38 0 4.62 0.54 8.48 4.39 9.37 9.37 3.25 18.15 7.18 30.93 9.91 38.46 4.29 11.84 14.64 20.72 27.01 23.19 15.38 3.07 30.77 4.6 45.72 4.6 6.28 0 12.47-0.29 18.55-0.83v11.68zm33.9-97.02c-1.4 12.32-4.05 31.02-8.69 50.17-1.23 5.08-5.35 9.01-10.5 10-15.96 3.09-41.84 5.42-74.48-1.09-4.55-0.91-8.36-4.17-9.94-8.52-2.41-6.65-5.9-18-8.82-34.2-0.09-1.99-0.48-4.29-1.1-6.44-0.72-4.65-1.39-9.6-1.93-14.33-0.42-3.64 0.63-7.19 2.97-10.02 2.35-2.85 5.68-4.57 9.37-4.85 9.26-0.71 18.68-1.06 28.01-1.06 27.43 0 50.07 3.08 64.24 5.66 6.9 1.26 11.68 7.7 10.88 14.67z"></path></g></svg>